<svg width="70" height="70" viewBox="0 0 70 70" fill="none" xmlns="http://www.w3.org/2000/svg">
<path d="M60.5208 6.91667H50.1458V1.72917C50.1458 1.27056 49.9637 0.830743 49.6394 0.506462C49.3151 0.18218 48.8753 0 48.4167 0C47.9581 0 47.5182 0.18218 47.194 0.506462C46.8697 0.830743 46.6875 1.27056 46.6875 1.72917V6.91667H22.4792V1.72917C22.4792 1.27056 22.297 0.830743 21.9727 0.506462C21.6484 0.18218 21.2086 0 20.75 0C20.2914 0 19.8516 0.18218 19.5273 0.506462C19.203 0.830743 19.0208 1.27056 19.0208 1.72917V6.91667H8.64583C6.35366 6.91941 4.15615 7.83119 2.53534 9.45201C0.914525 11.0728 0.00274567 13.2703 0 15.5625V60.5208C0.00274567 62.813 0.914525 65.0105 2.53534 66.6313C4.15615 68.2521 6.35366 69.1639 8.64583 69.1667H60.5208C62.8139 69.1667 65.013 68.2558 66.6344 66.6344C68.2558 65.013 69.1667 62.8139 69.1667 60.5208V15.5625C69.1667 13.2695 68.2558 11.0704 66.6344 9.44897C65.013 7.82756 62.8139 6.91667 60.5208 6.91667ZM65.7083 60.5208C65.7083 61.8966 65.1618 63.2161 64.1889 64.1889C63.2161 65.1618 61.8966 65.7083 60.5208 65.7083H8.64583C7.27002 65.7083 5.95056 65.1618 4.97772 64.1889C4.00487 63.2161 3.45833 61.8966 3.45833 60.5208V31.125H65.7083V60.5208ZM65.7083 27.6667H3.45833V15.5625C3.45833 12.699 5.77542 10.375 8.64583 10.375H19.0208V15.5625C19.0208 16.0211 19.203 16.4609 19.5273 16.7852C19.8516 17.1095 20.2914 17.2917 20.75 17.2917C21.2086 17.2917 21.6484 17.1095 21.9727 16.7852C22.297 16.4609 22.4792 16.0211 22.4792 15.5625V10.375H46.6875V15.5625C46.6875 16.0211 46.8697 16.4609 47.194 16.7852C47.5182 17.1095 47.9581 17.2917 48.4167 17.2917C48.8753 17.2917 49.3151 17.1095 49.6394 16.7852C49.9637 16.4609 50.1458 16.0211 50.1458 15.5625V10.375H60.5208C61.8966 10.375 63.2161 10.9215 64.1889 11.8944C65.1618 12.8672 65.7083 14.1867 65.7083 15.5625V27.6667Z" fill="currentColor"/>
</svg>
