<svg width="76" height="76" viewBox="0 0 76 76" fill="none" xmlns="http://www.w3.org/2000/svg">
<path d="M3.12397e-05 37.625C3.12397e-05 16.8453 16.8453 0 37.625 0C58.4048 0 75.25 16.8453 75.25 37.625C75.25 58.4048 58.4048 75.25 37.625 75.25C31.261 75.25 25.2572 73.6671 19.995 70.8721L5.13853 75.0968C4.44806 75.2925 3.71786 75.3004 3.02334 75.1195C2.32882 74.9387 1.69517 74.5757 1.18783 74.0681C0.680496 73.5605 0.317869 72.9267 0.137405 72.2321C-0.0430591 71.5374 -0.0348167 70.8072 0.161281 70.1169L4.38603 55.2631C1.49842 49.8329 -0.00791035 43.7752 3.12397e-05 37.625ZM21.5 29.5625C21.5 30.2753 21.7832 30.9588 22.2872 31.4628C22.7912 31.9669 23.4748 32.25 24.1875 32.25H51.0625C51.7753 32.25 52.4589 31.9669 52.9629 31.4628C53.4669 30.9588 53.75 30.2753 53.75 29.5625C53.75 28.8497 53.4669 28.1662 52.9629 27.6622C52.4589 27.1581 51.7753 26.875 51.0625 26.875H24.1875C23.4748 26.875 22.7912 27.1581 22.2872 27.6622C21.7832 28.1662 21.5 28.8497 21.5 29.5625ZM24.1875 43C23.4748 43 22.7912 43.2831 22.2872 43.7871C21.7832 44.2912 21.5 44.9747 21.5 45.6875C21.5 46.4003 21.7832 47.0838 22.2872 47.5879C22.7912 48.0919 23.4748 48.375 24.1875 48.375H40.3125C41.0253 48.375 41.7089 48.0919 42.2129 47.5879C42.7169 47.0838 43 46.4003 43 45.6875C43 44.9747 42.7169 44.2912 42.2129 43.7871C41.7089 43.2831 41.0253 43 40.3125 43H24.1875Z" fill="currentColor"/>
</svg>
