<svg width="71" height="71" viewBox="0 0 71 71" fill="none" xmlns="http://www.w3.org/2000/svg">
<path d="M35.4375 0C15.8659 0 0 15.8659 0 35.4375C0 41.4366 1.49344 47.0939 4.12847 52.0501L0.149344 66.0403C-0.0355774 66.6908 -0.0434083 67.3789 0.12666 68.0334C0.296729 68.6879 0.638524 69.2852 1.11671 69.7634C1.5949 70.2415 2.19213 70.5833 2.84666 70.7534C3.50119 70.9235 4.18926 70.9156 4.83975 70.7307L18.8325 66.7516C23.9454 69.4675 29.648 70.8836 35.4375 70.875C55.0091 70.875 70.875 55.0091 70.875 35.4375C70.875 15.8659 55.0091 0 35.4375 0ZM35.4375 68.3438C30.0636 68.3459 24.771 67.0318 20.0222 64.5165L19.1236 64.0381L4.14872 68.2982C4.03046 68.3336 3.90766 68.3515 3.78422 68.3513C3.58984 68.3474 3.39895 68.299 3.22618 68.2098C3.05342 68.1206 2.90336 67.9931 2.78754 67.8369C2.67171 67.6808 2.59318 67.5002 2.55797 67.309C2.52275 67.1178 2.5318 66.921 2.58441 66.7339L6.84197 51.7615L6.36356 50.8629C3.84526 46.1123 2.52946 40.8169 2.53125 35.44C2.53125 17.296 17.2935 2.53378 35.4375 2.53378C53.5815 2.53378 68.3438 17.296 68.3438 35.44C68.3438 53.584 53.5815 68.3438 35.4375 68.3438ZM49.3594 27.8463H21.5156C21.18 27.8463 20.858 27.7129 20.6207 27.4756C20.3833 27.2382 20.25 26.9163 20.25 26.5807C20.25 26.245 20.3833 25.9231 20.6207 25.6857C20.858 25.4484 21.18 25.315 21.5156 25.315H49.3594C49.695 25.315 50.017 25.4484 50.2543 25.6857C50.4917 25.9231 50.625 26.245 50.625 26.5807C50.625 26.9163 50.4917 27.2382 50.2543 27.4756C50.017 27.7129 49.695 27.8463 49.3594 27.8463ZM39.2344 43.0338H21.5156C21.18 43.0338 20.858 42.9004 20.6207 42.6631C20.3833 42.4257 20.25 42.1038 20.25 41.7682C20.25 41.4325 20.3833 41.1106 20.6207 40.8732C20.858 40.6359 21.18 40.5025 21.5156 40.5025H39.2344C39.57 40.5025 39.892 40.6359 40.1293 40.8732C40.3667 41.1106 40.5 41.4325 40.5 41.7682C40.5 42.1038 40.3667 42.4257 40.1293 42.6631C39.892 42.9004 39.57 43.0338 39.2344 43.0338Z" fill="currentColor"/>
</svg>
