<svg width="57" height="62" viewBox="0 0 57 62" fill="none" xmlns="http://www.w3.org/2000/svg">
<path d="M4.04167 57.54H18.9635V37.232C18.9635 36.3173 19.2774 35.5507 19.9052 34.932C20.5303 34.3107 21.305 34 22.2292 34H34.3542C35.2784 34 36.0544 34.3107 36.6822 34.932C37.3073 35.5507 37.6198 36.3173 37.6198 37.232V57.54H52.5417V22.772C52.5417 22.3613 52.4514 21.988 52.2709 21.652C52.0903 21.316 51.8438 21.0227 51.5312 20.772L29.7709 4.54C29.356 4.18267 28.8629 4.004 28.2917 4.004C27.7204 4.004 27.2287 4.18267 26.8165 4.54L5.05208 20.772C4.74222 21.028 4.49568 21.3213 4.31246 21.652C4.12924 21.9827 4.03897 22.356 4.04167 22.772V57.54ZM0 57.54V22.772C0 21.748 0.231722 20.7787 0.695166 19.864C1.15861 18.9493 1.79719 18.196 2.61092 17.604L24.3753 1.292C25.515 0.430668 26.8165 0 28.2795 0C29.7426 0 31.0521 0.430668 32.208 1.292L53.9724 17.6C54.7888 18.192 55.4274 18.9467 55.8882 19.864C56.3516 20.7787 56.5833 21.748 56.5833 22.772V57.54C56.5833 58.612 56.1805 59.5467 55.3749 60.344C54.5692 61.1413 53.6248 61.54 52.5417 61.54H36.8438C35.9169 61.54 35.1409 61.2307 34.5158 60.612C33.8907 59.9907 33.5782 59.2227 33.5782 58.308V38.004H23.0052V58.308C23.0052 59.2253 22.6926 59.9933 22.0675 60.612C21.4424 61.2307 20.6677 61.54 19.7435 61.54H4.04167C2.9585 61.54 2.0141 61.1413 1.20846 60.344C0.402819 59.5467 0 58.612 0 57.54Z" fill="currentColor"/>
</svg>
