<svg width="63" height="63" viewBox="0 0 63 63" fill="none" xmlns="http://www.w3.org/2000/svg">
<path d="M6.32933 62.6667C4.52506 62.6667 3.01975 62.0635 1.81342 60.8572C0.607083 59.6508 0.00261111 58.1442 0 56.3373V6.32933C0 4.52506 0.604472 3.01975 1.81342 1.81342C3.02236 0.607083 4.52767 0.00261111 6.32933 0H45.3433L62.6667 17.3234V56.3413C62.6667 58.1429 62.0635 59.6482 60.8572 60.8572C59.6508 62.0661 58.1442 62.6693 56.3373 62.6667H6.32933ZM6.32933 58.75H56.3413C57.0436 58.75 57.6207 58.5241 58.0724 58.0724C58.5241 57.6207 58.75 57.0436 58.75 56.3413V19.5833H43.0833V3.91667H6.32933C5.62433 3.91667 5.04597 4.14253 4.59425 4.59425C4.14253 5.04597 3.91667 5.62433 3.91667 6.32933V56.3413C3.91667 57.0436 4.14253 57.6207 4.59425 58.0724C5.04597 58.5241 5.62433 58.75 6.32933 58.75ZM13.7083 47H48.9583V43.0833H13.7083V47ZM13.7083 19.5833H31.3333V15.6667H13.7083V19.5833ZM13.7083 33.2917H48.9583V29.375H13.7083V33.2917Z" fill="currentColor"/>
</svg>
