<svg width="54" height="80" viewBox="0 0 54 80" fill="none" xmlns="http://www.w3.org/2000/svg">
<path d="M0.5 52.7899V26.645C0.5 19.7109 3.25455 13.0608 8.15768 8.15768C13.0608 3.25455 19.7109 0.5 26.645 0.5C33.579 0.5 40.2291 3.25455 45.1322 8.15768C50.0354 13.0608 52.7899 19.7109 52.7899 26.645V61.5049C52.7899 66.1276 50.9535 70.561 47.6848 73.8297C44.416 77.0985 39.9827 78.9349 35.3599 78.9349C30.7372 78.9349 26.3038 77.0985 23.0351 73.8297C19.7663 70.561 17.93 66.1276 17.93 61.5049V26.645C17.93 24.3336 18.8482 22.1169 20.4825 20.4825C22.1169 18.8482 24.3336 17.93 26.645 17.93C28.9563 17.93 31.173 18.8482 32.8074 20.4825C34.4418 22.1169 35.3599 24.3336 35.3599 26.645V61.5049" stroke="currentColor" stroke-linecap="round" stroke-linejoin="round"/>
</svg>
