<svg width="56" height="56" viewBox="0 0 56 56" fill="none" xmlns="http://www.w3.org/2000/svg">
<path fill-rule="evenodd" clip-rule="evenodd" d="M39.3319 8.07356L47.5262 16.2782C50.1302 18.8822 52.2382 20.9928 53.597 22.827C54.9946 24.7128 55.8988 26.702 55.408 28.9676C54.9171 31.2383 53.2741 32.6721 51.223 33.8113C49.226 34.9196 46.4335 35.9684 42.9899 37.2626L37.8826 39.1821C35.8289 39.9519 35.2709 40.1922 34.855 40.5512C34.6483 40.7338 34.4623 40.9379 34.297 41.1635C33.9766 41.6104 33.788 42.1891 33.2068 44.3048L33.1732 44.4211C32.5842 46.5678 32.096 48.34 31.5612 49.6704C31.0187 51.0215 30.2876 52.3002 28.9727 53.052C28.0597 53.5723 27.0269 53.8457 25.976 53.8451C24.4596 53.8451 23.1912 53.0907 22.052 52.1866C20.9308 51.2927 19.634 49.9907 18.0607 48.4149L13.9584 44.3126L3.30987 54.974C2.94675 55.3378 2.45397 55.5425 1.93995 55.5429C1.42593 55.5434 0.932766 55.3397 0.568955 54.9766C0.205144 54.6134 0.000485339 54.1207 8.62102e-07 53.6066C-0.000483615 53.0926 0.203246 52.5995 0.566372 52.2356L11.22 41.5716L7.25462 37.6011C5.69171 36.0382 4.40262 34.7465 3.51396 33.6305C2.61237 32.499 1.86579 31.2383 1.85546 29.7348C1.84959 28.6633 2.12865 27.6095 2.66404 26.6813C3.4132 25.3767 4.68421 24.6508 6.02754 24.1109C7.3502 23.5813 9.10946 23.0956 11.2407 22.5092L11.357 22.4756C13.4753 21.8918 14.0565 21.7006 14.5009 21.3803C14.7334 21.2133 14.9418 21.0221 15.126 20.8068C15.4825 20.3857 15.7202 19.8251 16.4771 17.7585L18.3268 12.7055C19.6055 9.22056 20.6389 6.39698 21.7368 4.38198C22.8657 2.30756 24.2943 0.641314 26.5728 0.140147C28.8513 -0.363603 30.8482 0.548314 32.7444 1.95365C34.5837 3.32281 36.7098 5.4489 39.3319 8.07356ZM30.4323 5.06398C28.8771 3.90665 28.053 3.77748 27.4072 3.91956C26.7614 4.06165 26.0665 4.52665 25.139 6.23165C24.1961 7.96248 23.2558 10.5148 21.9099 14.1909L20.1145 19.0915L20.0111 19.3705C19.4092 21.0238 18.9416 22.3052 18.0736 23.3204C17.6878 23.7751 17.2521 24.1772 16.7665 24.5268C15.6815 25.307 14.3717 25.6661 12.6719 26.1336L12.3877 26.2111C10.1092 26.8389 8.56437 27.2703 7.47162 27.7095C6.37371 28.1486 6.11021 28.4587 6.01979 28.6136C5.82806 28.9467 5.72821 29.3247 5.73045 29.709C5.73045 29.8898 5.80795 30.2902 6.54679 31.2176C7.28046 32.1399 8.41195 33.2766 10.0808 34.948L20.7164 45.5913C22.3955 47.2757 23.54 48.4149 24.4674 49.1563C25.3974 49.8951 25.8004 49.9701 25.9786 49.9701C26.3556 49.9715 26.7263 49.8734 27.0533 49.6859C27.2083 49.5981 27.5209 49.3346 27.9652 48.2289C28.4095 47.1232 28.8384 45.5681 29.4687 43.2766L29.5462 42.9925C30.0112 41.2952 30.3729 39.9855 31.1479 38.9031C31.4872 38.4312 31.8772 38.0041 32.3181 37.6217C33.3256 36.7511 34.5966 36.2732 36.2422 35.6584L36.5186 35.5551L41.4709 33.6951C45.1082 32.3259 47.627 31.3752 49.3397 30.4246C51.0215 29.492 51.4813 28.7971 51.6208 28.1512C51.7603 27.5028 51.6285 26.6787 50.4841 25.1339C49.3165 23.5581 47.4177 21.649 44.669 18.9003L36.7072 10.9281C33.9405 8.15881 32.0159 6.24198 30.4323 5.06398Z" fill="currentColor"/>
</svg>
