<svg width="96" height="107" fill="none" xmlns="http://www.w3.org/2000/svg"><path d="M90.21 2.664l2.013-.306L91.882 0l-2.33.814.657 1.85zM75.094 104.613l-.195 1.962c4.463.339 8.124-1.34 10.976-4.377 2.777-2.958 4.774-7.177 6.227-12.035 2.911-9.73 3.858-22.774 3.867-35.702.009-12.97-.929-25.994-1.866-35.763a444.589 444.589 0 00-1.29-11.828 315.745 315.745 0 00-.58-4.432l-.008-.059-.002-.015V2.36c0-.001 0-.002-2.013.304l-2.012.307v.003a1.932 1.932 0 01.01.068 86.018 86.018 0 01.149 1.081c.101.757.247 1.869.421 3.284.35 2.832.815 6.877 1.28 11.726.93 9.703 1.857 22.594 1.848 35.397-.009 12.844-.96 25.43-3.705 34.601-1.374 4.593-3.145 8.142-5.309 10.447-2.089 2.226-4.542 3.305-7.603 3.073l-.195 1.962zM90.21 2.664c-.657-1.85-.658-1.85-.66-1.85l-.003.002-.016.006a32.465 32.465 0 00-.287.101l-.881.315c-.77.277-1.892.685-3.313 1.213a467.089 467.089 0 00-11.658 4.522c-9.557 3.852-22.127 9.27-34.125 15.522-11.956 6.23-23.515 13.373-30.92 20.712-3.7 3.668-6.509 7.524-7.71 11.476-1.231 4.056-.732 8.107 1.976 11.881l1.675-1.143 1.674-1.144c-1.988-2.77-2.327-5.59-1.429-8.546.93-3.06 3.22-6.355 6.694-9.799 6.944-6.882 18.04-13.791 29.913-19.978 11.832-6.165 24.265-11.526 33.754-15.35 4.74-1.911 8.74-3.435 11.551-4.481a327.81 327.81 0 014.352-1.583l.054-.02a3.34 3.34 0 00.014-.004l.003-.001-.658-1.85zM4.288 65.421l-1.675 1.143C12.22 79.952 21.61 85.27 28.826 87.131c3.59.927 6.583.98 8.712.79a18.455 18.455 0 002.506-.391 12.125 12.125 0 00.91-.25l.066-.02.022-.009c.004 0 .007-.002.01-.003l.003-.001c.002 0 .004-.001-.67-1.846a115.464 115.464 0 01-.67-1.846h.002a.123.123 0 01.004-.002l.004-.001-.01.003a7.843 7.843 0 01-.55.148c-.423.098-1.076.221-1.93.298-1.703.153-4.212.121-7.297-.675-6.136-1.583-14.795-6.255-23.976-19.048L4.288 65.42zM40.385 85.4c-1.965.535-1.964.537-1.964.538l.001.004.002.008.006.02a4.11 4.11 0 00.078.252c.053.157.13.374.236.644a18.54 18.54 0 001.04 2.173c.99 1.78 2.631 4.135 5.258 6.55 5.281 4.853 14.404 9.812 29.857 10.985l.195-1.962.195-1.962c-14.64-1.112-22.873-5.759-27.423-9.94-2.288-2.103-3.682-4.123-4.498-5.588a14.757 14.757 0 01-.828-1.724 8.175 8.175 0 01-.19-.531l-.003-.013v.002l.001.004v.002c.001.002.002.003-1.963.538zm0 0l1.75.969v-.001l.001-.001v-.001l.001-.001v-.001l.002-.002v-.001l.001-.002.001-.001.002-.002v-.002l.002-.003.002-.002.001-.002.002-.003.001-.003.002-.003.002-.003.002-.003.002-.004a.07.07 0 01.002-.003l.003-.004.002-.004a.09.09 0 01.003-.004l.002-.005.003-.004.002-.005.003-.004.003-.005.003-.005.003-.005.004-.006c0-.002.002-.003.003-.005l.003-.006a.448.448 0 01.008-.012l.003-.006.004-.006.004-.007.004-.006.004-.007.004-.007.005-.007.004-.008.004-.007a.312.312 0 01.005-.008l.005-.008a.549.549 0 00.01-.016l.004-.008.005-.008.006-.009a.405.405 0 01.005-.009l.005-.009.006-.009.005-.009.006-.01.006-.009.006-.01.006-.01.006-.01.006-.01.006-.01.007-.011.006-.01.007-.012.006-.011a.67.67 0 01.007-.011l.007-.012.007-.011a.738.738 0 01.007-.012l.007-.012.008-.012.007-.013.008-.012.007-.013.008-.012.008-.013.008-.014.008-.013a.973.973 0 01.024-.041l.009-.014.008-.014a1.092 1.092 0 01.018-.03l.009-.014.009-.015.009-.015.009-.015a.903.903 0 01.028-.047l.01-.016.01-.016.01-.016.01-.017.01-.016.01-.017.01-.017.01-.017.01-.018.011-.017.01-.018.011-.018.011-.018a1.773 1.773 0 01.023-.037l.01-.018.012-.02.011-.018.012-.02.012-.019.011-.02.012-.019.012-.02.012-.02.013-.02.012-.02.012-.021a2.29 2.29 0 01.025-.042l.013-.021.013-.021.013-.022.013-.022.013-.022.014-.022.013-.022.014-.023.013-.022.014-.023.014-.023.014-.023.014-.024.014-.023.014-.024.015-.024.014-.024.015-.025.015-.024.015-.025.015-.025.015-.025.015-.025.015-.026.016-.025.015-.026.016-.026.016-.026.016-.027.016-.026.016-.027.016-.027.017-.027.016-.028.017-.027c.005-.01.01-.019.017-.028l.016-.028.017-.028.017-.029.018-.028.017-.029.017-.029.018-.029.018-.03.017-.029.018-.03.018-.03.018-.03.018-.03.019-.03.018-.031.019-.031.019-.031.019-.031.019-.032.019-.031.019-.032.02-.032.019-.033.02-.032.019-.033.02-.033.02-.033.02-.033.02-.034.02-.033a5.06 5.06 0 00.02-.034l.021-.034a6.225 6.225 0 01.062-.104l.021-.035.021-.035.022-.035a16.837 16.837 0 01.086-.143l.022-.037.022-.036.022-.037.022-.037.023-.037.022-.037.023-.038.022-.038.023-.038.023-.038.023-.038.024-.039.023-.038.023-.04.024-.039.024-.04.024-.039.024-.04.024-.04.024-.04.024-.04.025-.041.024-.04.025-.042.025-.041.025-.042.025-.041.025-.042.026-.043.025-.042.026-.043.026-.042.026-.043.026-.043.026-.044.026-.043.027-.044.026-.044.027-.045.026-.044.027-.045.027-.045.028-.045.027-.045.027-.046.028-.046.028-.046.027-.046c.01-.015.02-.03.028-.046l.029-.047.028-.047.028-.047.029-.047.028-.048.029-.047.029-.048.029-.049.029-.048.03-.049.029-.048.03-.05.029-.049.03-.05.03-.049.03-.05.03-.05.03-.05.03-.051.031-.05.031-.052.03-.051.032-.052.031-.051a23.826 23.826 0 00.063-.104l.031-.053.032-.052.032-.053.032-.053.032-.054.032-.053.032-.054.033-.054.032-.054.033-.054.033-.055.033-.055.033-.055.034-.055c.01-.019.022-.037.033-.056l.034-.056.033-.056.034-.056.034-.056.035-.057c.01-.019.022-.038.034-.057l.034-.057.035-.057.034-.058.035-.058.035-.058.035-.058.036-.059.035-.058.035-.06.036-.059.036-.06.036-.059.036-.06.036-.06.037-.06.036-.06.037-.062.036-.06.037-.062.038-.062.037-.061.037-.063.038-.062.037-.062.038-.063.038-.063.038-.063.038-.064.038-.063.039-.064.039-.064.038-.065.04-.064a22.3 22.3 0 01.038-.065l.04-.065.039-.066.04-.065a57.963 57.963 0 01.079-.132l.04-.066.04-.067.04-.067.04-.067.04-.067.042-.067.04-.068.041-.068.041-.068.042-.069.041-.069.041-.069.042-.069.042-.07.042-.069.042-.07.042-.07.043-.07.042-.071a16.636 16.636 0 00.086-.142l.043-.071.043-.072.043-.072.044-.072.043-.072a17.477 17.477 0 00.088-.146l.044-.073.044-.073.044-.074a48.107 48.107 0 00.134-.222l.045-.075.045-.075.046-.075a50.08 50.08 0 00.09-.15l.046-.077.046-.076.046-.076.046-.077.046-.076.047-.078.046-.077.047-.077.047-.078.047-.079.047-.078.047-.078.048-.08.048-.078.047-.08.048-.08.048-.08a217290179945.568 217290179945.568 0 01.097-.16l.049-.08.048-.081.05-.082c.015-.027.032-.054.048-.08l.05-.083.049-.081.05-.083.049-.082.05-.083.05-.083.05-.083.05-.083.05-.084.051-.084.05-.084.052-.085.05-.085.052-.085.051-.085.052-.085.051-.086.052-.086.052-.087.052-.086.053-.087.052-.087c.017-.03.035-.058.053-.087l.052-.088.053-.088.053-.088.054-.088.053-.09.054-.088.053-.09.054-.089a35.424 35.424 0 00.108-.18l.055-.09.054-.09.055-.09.055-.092.055-.091.055-.092.055-.092.056-.092.055-.092.056-.093.056-.093.056-.093.056-.093.057-.094.056-.094c.02-.031.038-.063.057-.094l.057-.095c.02-.031.038-.063.057-.095.02-.031.038-.063.057-.095l.058-.095.058-.096.057-.096c.02-.031.039-.063.058-.096l.058-.096.058-.097.059-.097.058-.097a50.394 50.394 0 01.118-.195l.059-.098.06-.098.059-.099.059-.099.06-.099.06-.1.06-.1.06-.099.06-.1.06-.1a33.624 33.624 0 00.183-.304l.061-.101.062-.102.061-.103.062-.102.062-.103.062-.103.062-.103.062-.103.063-.104c.02-.035.042-.07.063-.104l.062-.105.063-.104.064-.105.063-.105.063-.106.064-.106.064-.106.064-.106.064-.106.065-.107.064-.108.065-.107.065-.108.065-.108.065-.108.065-.109.066-.108.066-.11.066-.109.066-.11a106.517 106.517 0 00.199-.33l.067-.111a108.68 108.68 0 00.134-.223l-1.75-.968-1.75-.969-.067.111-.067.112-.067.11-.066.111-.067.11-.066.11-.066.11-.066.11-.066.108-.065.11-.066.108-.065.108-.065.108-.065.108-.065.107a101.2 101.2 0 01-.064.107l-.065.107c-.02.036-.042.072-.064.107l-.064.106-.064.106c-.02.036-.042.07-.063.106l-.064.105c-.02.036-.042.07-.063.106a97.08 97.08 0 01-.252.418l-.062.104-.063.103-.062.103-.062.103-.062.103-.061.102-.062.103-.061.102-.061.101-.061.101-.061.101-.061.101-.06.1-.06.1-.061.1-.06.1-.06.1-.06.099-.06.099-.059.099-.059.098-.059.098-.059.098-.058.097-.059.097-.058.097-.058.097-.059.096-.057.096-.058.096-.058.096-.057.095-.057.095-.058.095-.056.095c-.02.031-.038.063-.057.094-.02.031-.038.063-.057.094a77.31 77.31 0 01-.112.187l-.057.093-.056.093-.055.093-.056.092-.055.092-.056.092-.055.092a111.193 111.193 0 00-.164.273l-.055.09-.054.09-.054.09-.054.09-.054.09-.054.089-.054.089-.053.088-.053.089-.053.088-.053.088-.053.088-.053.087-.052.087-.052.087-.053.086-.052.087-.051.086-.052.085-.052.086-.05.085-.052.085-.051.085-.051.085-.05.084-.051.084-.05.084-.05.083a18.35 18.35 0 00-.051.083l-.05.083-.05.083-.05.082-.049.082-.05.082a25.32 25.32 0 00-.048.082l-.05.081-.048.082-.049.08-.049.081a34.264 34.264 0 00-.096.16l-.048.08-.048.08-.048.08-.048.079-.047.078a27.19 27.19 0 01-.048.079l-.047.078-.047.079a32.17 32.17 0 00-.047.077l-.046.078-.047.077-.046.077-.047.077-.046.077-.046.076-.046.076-.045.076-.046.076-.045.075-.045.075-.046.075-.044.075-.045.074-.045.074-.044.074-.045.074-.044.073-.044.073-.044.073-.043.072-.044.073-.044.072-.043.072-.043.072-.043.07-.043.072-.042.07-.043.072-.042.07-.043.07-.042.07-.042.07-.042.07-.041.068-.042.07-.041.068-.041.069-.041.068-.041.068-.041.067-.04.068-.041.067-.04.067-.04.067c-.014.022-.028.044-.04.066l-.04.067-.04.066-.04.066-.04.065-.04.066-.038.065-.04.064-.038.065-.039.065-.039.064-.038.064-.038.063-.039.064-.038.063-.038.063-.038.063-.037.062-.038.062-.037.062-.037.062-.037.062-.037.061-.037.061-.037.061-.036.06-.037.061-.036.06-.036.06-.036.06-.035.06-.036.058-.036.06-.035.058-.035.059a9.01 9.01 0 00-.035.058l-.035.058-.035.058-.035.058-.034.057-.035.057-.034.057-.034.057-.034.056-.034.056-.034.056-.034.056c-.01.019-.022.037-.033.056a11.6 11.6 0 00-.033.055l-.033.055-.033.055-.033.055-.033.054a25.855 25.855 0 01-.065.108l-.033.054-.032.053-.032.054-.032.053-.032.053-.031.052-.032.053-.031.052-.032.052-.03.051-.032.052-.03.051-.031.051-.031.05-.03.051-.03.05-.031.051-.03.05-.03.05-.03.05-.03.048-.029.05-.03.048-.029.049-.029.048-.029.048-.029.049-.029.047-.028.048-.029.047-.028.047-.028.047-.028.047-.028.046-.028.046-.028.046-.027.046a18.303 18.303 0 01-.055.09l-.027.046-.027.045a10.588 10.588 0 00-.054.09l-.027.043-.026.044-.027.044-.026.044-.026.043a8.21 8.21 0 01-.052.087l-.026.042a9.606 9.606 0 00-.076.128l-.026.041-.025.042-.025.042-.025.04-.024.042-.025.04-.024.042-.025.04-.024.04a21.35 21.35 0 00-.072.12l-.024.04-.023.038a8.068 8.068 0 00-.024.04l-.023.038a7.888 7.888 0 00-.023.039l-.023.038-.023.038-.023.038-.023.038-.023.038-.022.037a7.337 7.337 0 00-.023.037l-.022.037-.022.037-.022.036-.022.037-.021.036-.022.036-.022.035-.021.036-.021.035-.021.035-.021.035-.021.035-.021.034-.02.035a15.452 15.452 0 00-.042.068l-.02.033-.02.034-.02.033a14.548 14.548 0 00-.06.099l-.02.032-.018.032-.02.032-.02.032c-.005.011-.012.021-.018.032l-.02.032-.018.03-.019.032-.018.03-.019.032-.018.03a4.04 4.04 0 01-.018.03l-.019.03-.018.03-.017.03-.018.03-.018.029-.017.03-.018.028a11.003 11.003 0 00-.034.057l-.017.029a7 7 0 01-.017.028l-.017.028-.017.028-.016.027a2.848 2.848 0 00-.033.055l-.017.027-.016.026-.016.027-.016.027-.016.026-.015.026-.016.026-.015.025a5.68 5.68 0 01-.016.026l-.015.025-.015.025-.015.025-.015.025-.015.024-.014.025-.015.024-.014.024-.015.024-.014.023-.014.024-.014.023-.014.023-.013.023-.014.022-.014.023-.013.022-.013.022-.014.022-.013.022-.013.021-.012.022-.013.02-.013.022-.012.02-.013.021-.012.02a5.467 5.467 0 00-.024.041l-.012.02-.012.02-.012.02-.012.019-.011.019a4.869 4.869 0 00-.012.019l-.011.018-.011.02c-.004.005-.008.011-.011.018l-.011.018-.011.018-.011.018-.01.018-.011.017-.01.017-.011.018-.01.017-.01.017-.01.016-.01.017-.01.016-.01.016-.01.016-.009.016-.01.015c-.002.006-.006.01-.009.016l-.009.015-.009.015a.732.732 0 00-.009.015l-.009.015-.009.014-.008.015-.009.014-.008.014-.009.014-.008.013-.008.014-.008.013-.008.014-.008.012-.007.013a.843.843 0 00-.008.013l-.008.012a.802.802 0 01-.007.013l-.007.012-.008.012-.007.012-.007.011-.007.012-.006.01a.414.414 0 01-.014.023l-.006.01-.006.011a.951.951 0 01-.007.01l-.006.011-.006.01-.006.01-.006.01-.006.01-.005.009-.006.01-.005.008-.006.01-.005.008-.005.009a.188.188 0 00-.005.008l-.005.008-.005.009-.005.007-.005.008-.004.008-.005.007-.004.008-.005.007a.432.432 0 01-.004.007l-.004.007-.004.006-.004.007c0 .002-.002.004-.004.006l-.003.006a.159.159 0 01-.007.012.171.171 0 00-.004.006c0 .002-.002.003-.003.005a.093.093 0 01-.003.006l-.003.005-.003.005-.003.005-.003.004a.11.11 0 00-.006.01l-.002.004-.003.004-.002.004-.002.003-.002.004-.003.004-.001.003-.002.003a.024.024 0 00-.002.003l-.002.003-.002.002-.001.003a.051.051 0 01-.003.005l-.001.002-.001.001-.001.002-.001.002-.001.001v.002h-.002v.002l-.001.001v.001l1.749.969z" fill="currentColor"/></svg>