<svg width="83" height="84" viewBox="0 0 83 84" fill="none" xmlns="http://www.w3.org/2000/svg">
<path d="M76.8484 55.2083L68.8101 49.4667C70.1351 44.6967 70.2234 39.5292 68.8101 34.3617L76.8484 28.7083L70.4443 17.6667L61.4784 21.73C57.9893 18.1967 53.5726 15.4583 48.4051 14.1775L47.5218 4.41667H34.7134L33.8301 14.1775C28.6626 15.4583 24.2459 18.1967 20.7568 21.73L11.7909 17.6667L5.38678 28.7083L13.4251 34.3617C12.0118 39.5292 12.1001 44.6967 13.4251 49.4667L5.38678 55.2083L11.7909 66.25L20.7568 62.1425C24.2459 65.6317 28.6626 68.2817 33.8301 69.6508L34.7134 79.5H47.5218L48.4051 69.6508C53.5726 68.2817 57.9893 65.6317 61.4784 62.1425L70.4443 66.25L76.8484 55.2083ZM49.9509 0C51.1434 0 52.1593 0.883334 52.1593 2.03167L52.9543 11.0417C56.3109 12.2783 59.3143 14.0892 62.0084 16.2533L70.1793 12.4108C71.1951 11.8808 72.4759 12.2342 73.0943 13.25L81.9276 28.7083C82.5459 29.6358 82.1926 30.9167 81.2209 31.5792L73.8451 36.7467C74.4193 40.28 74.3751 43.7692 73.8451 47.17L81.2209 52.3375C82.1926 53 82.5459 54.2808 81.9276 55.2083L73.0943 70.6667C72.4759 71.5942 71.1951 71.9475 70.1793 71.4175L62.0084 67.6192C59.3143 69.7833 56.3109 71.55 52.9543 72.875L52.1593 81.7083C52.1593 82.9892 51.1434 83.9167 49.9509 83.9167H32.2843C31.6986 83.9167 31.1369 83.684 30.7228 83.2699C30.3086 82.8557 30.0759 82.294 30.0759 81.7083L29.2809 72.875C25.9243 71.55 22.9209 69.7833 20.2268 67.6192L12.0559 71.4175C11.0401 71.9475 9.75928 71.5942 9.14095 70.6667L0.307615 55.2083C-0.310718 54.2808 0.0426158 53 1.01428 52.3375L8.39012 47.17C7.86012 43.7692 7.81595 40.28 8.39012 36.7467L1.01428 31.5792C0.0426158 30.9167 -0.310718 29.6358 0.307615 28.7083L9.14095 13.25C9.75928 12.2342 11.0401 11.8808 12.0559 12.4108L20.2268 16.2533C22.9209 14.0892 25.9243 12.2783 29.2809 11.0417L30.0759 2.03167C30.0759 0.883334 31.0918 0 32.2843 0H49.9509ZM41.1176 26.5C45.2174 26.5 49.1493 28.1286 52.0483 31.0276C54.9473 33.9266 56.5759 37.8585 56.5759 41.9583C56.5759 46.0581 54.9473 49.99 52.0483 52.889C49.1493 55.788 45.2174 57.4167 41.1176 57.4167C37.0178 57.4167 33.0859 55.788 30.1869 52.889C27.2879 49.99 25.6593 46.0581 25.6593 41.9583C25.6593 37.8585 27.2879 33.9266 30.1869 31.0276C33.0859 28.1286 37.0178 26.5 41.1176 26.5ZM41.1176 30.9167C38.1892 30.9167 35.3807 32.08 33.31 34.1507C31.2393 36.2214 30.0759 39.0299 30.0759 41.9583C30.0759 44.8868 31.2393 47.6953 33.31 49.766C35.3807 51.8367 38.1892 53 41.1176 53C44.046 53 46.8545 51.8367 48.9253 49.766C50.996 47.6953 52.1593 44.8868 52.1593 41.9583C52.1593 39.0299 50.996 36.2214 48.9253 34.1507C46.8545 32.08 44.046 30.9167 41.1176 30.9167Z" fill="currentColor"/>
</svg>
